# xmcd
#
# Track frame offsets:
#	150
#	15924
#	33744
#	55744
#	70001
#	88850
#	106244
#	129287
#	139883
#	159606
#	176587
#	189404
#	211314
#	235978
#	258764
#	271425
#	286143
#	313524
#	323529
#
# Disc length: 4473 seconds
#
# Revision: 1
# Processed by: cddbd v1.5.2PL0 Copyright (c) Steve Scherf et al.
# Submitted via: audiograbber 1.83.01
#
DISCID=02117713
DTITLE=Steve Earle - More Magnetised Motherfuckers
DYEAR=2007
DGENRE=Country
TTITLE0=Light In The Window
TTITLE1=Love Is Never Equal
TTITLE2=Losers Weep
TTITLE3=Concrete And Barbed Wire
TTITLE4=I'll Keep It With Mine
TTITLE5=Open Your Window
TTITLE6=Neverland
TTITLE7=Candy Man
TTITLE8=Two Girls
TTITLE9=Walking Down Death Row
TTITLE10=Mercenary Song
TTITLE11=Worth Blues
TTITLE12=Ellis Unit One
TTITLE13=Goodbye
TTITLE14=Hometown Blues
TTITLE15=Raleigh and Spencer
TTITLE16=Christmas In Washington
TTITLE17=Halo 'Round The Moon
TTITLE18=South Nashville Blues
EXTD=
EXTT0=
EXTT1=
EXTT2=
EXTT3=
EXTT4=
EXTT5=
EXTT6=
EXTT7=
EXTT8=
EXTT9=
EXTT10=
EXTT11=
EXTT12=
EXTT13=
EXTT14=
EXTT15=
EXTT16=
EXTT17=
EXTT18=
PLAYORDER=
